<mxfile host="65bd71144e">
    <diagram id="NQmDM4zYbcRRT2PgJNBt" name="ページ1">
        <mxGraphModel dx="731" dy="779" grid="1" gridSize="10" guides="1" tooltips="1" connect="1" arrows="1" fold="1" page="1" pageScale="1" pageWidth="1100" pageHeight="850" background="none" math="0" shadow="0">
            <root>
                <mxCell id="0"/>
                <mxCell id="1" parent="0"/>
                <mxCell id="12" value="" style="shape=flexArrow;endArrow=classic;html=1;width=17;endSize=10.4;fillColor=#3399FF;" edge="1" parent="1">
                    <mxGeometry width="50" height="50" relative="1" as="geometry">
                        <mxPoint x="400" y="430" as="sourcePoint"/>
                        <mxPoint x="550" y="80" as="targetPoint"/>
                    </mxGeometry>
                </mxCell>
                <mxCell id="11" value="" style="shape=flexArrow;endArrow=classic;html=1;width=17;endSize=10.4;fillColor=#3399FF;" edge="1" parent="1">
                    <mxGeometry width="50" height="50" relative="1" as="geometry">
                        <mxPoint x="90" y="80" as="sourcePoint"/>
                        <mxPoint x="240" y="430" as="targetPoint"/>
                    </mxGeometry>
                </mxCell>
                <mxCell id="20" style="edgeStyle=none;html=1;exitX=1;exitY=0.5;exitDx=0;exitDy=0;entryX=0;entryY=0.5;entryDx=0;entryDy=0;fontSize=18;endArrow=none;endFill=0;fillColor=#3399FF;dashed=1;dashPattern=8 8;" edge="1" parent="1" source="2" target="6">
                    <mxGeometry relative="1" as="geometry"/>
                </mxCell>
                <mxCell id="21" value="対応" style="edgeLabel;html=1;align=center;verticalAlign=middle;resizable=0;points=[];fontSize=18;" vertex="1" connectable="0" parent="20">
                    <mxGeometry x="0.1429" y="-1" relative="1" as="geometry">
                        <mxPoint x="-20" y="-1" as="offset"/>
                    </mxGeometry>
                </mxCell>
                <mxCell id="2" value="&lt;font style=&quot;font-size: 18px;&quot;&gt;要件定義&lt;/font&gt;" style="rounded=0;whiteSpace=wrap;html=1;" vertex="1" parent="1">
                    <mxGeometry x="60" y="130" width="120" height="60" as="geometry"/>
                </mxCell>
                <mxCell id="18" style="edgeStyle=none;html=1;exitX=1;exitY=0.5;exitDx=0;exitDy=0;entryX=0;entryY=0.5;entryDx=0;entryDy=0;fontSize=18;endArrow=none;endFill=0;fillColor=#3399FF;dashed=1;dashPattern=8 8;" edge="1" parent="1" source="3" target="7">
                    <mxGeometry relative="1" as="geometry"/>
                </mxCell>
                <mxCell id="19" value="対応" style="edgeLabel;html=1;align=center;verticalAlign=middle;resizable=0;points=[];fontSize=18;" vertex="1" connectable="0" parent="18">
                    <mxGeometry x="0.14" y="-1" relative="1" as="geometry">
                        <mxPoint x="-14" y="-1" as="offset"/>
                    </mxGeometry>
                </mxCell>
                <mxCell id="3" value="&lt;font style=&quot;font-size: 18px;&quot;&gt;概要設計&lt;/font&gt;" style="rounded=0;whiteSpace=wrap;html=1;" vertex="1" parent="1">
                    <mxGeometry x="100" y="220" width="120" height="60" as="geometry"/>
                </mxCell>
                <mxCell id="14" style="edgeStyle=none;html=1;exitX=1;exitY=0.5;exitDx=0;exitDy=0;entryX=0;entryY=0.5;entryDx=0;entryDy=0;fontSize=18;endArrow=none;endFill=0;fillColor=#3399FF;dashed=1;dashPattern=8 8;" edge="1" parent="1" source="4" target="8">
                    <mxGeometry relative="1" as="geometry"/>
                </mxCell>
                <mxCell id="15" value="対応" style="edgeLabel;html=1;align=center;verticalAlign=middle;resizable=0;points=[];fontSize=18;" vertex="1" connectable="0" parent="14">
                    <mxGeometry x="0.2" y="1" relative="1" as="geometry">
                        <mxPoint x="-12" y="1" as="offset"/>
                    </mxGeometry>
                </mxCell>
                <mxCell id="4" value="&lt;font style=&quot;font-size: 18px;&quot;&gt;詳細設計&lt;/font&gt;" style="rounded=0;whiteSpace=wrap;html=1;" vertex="1" parent="1">
                    <mxGeometry x="140" y="310" width="120" height="60" as="geometry"/>
                </mxCell>
                <mxCell id="5" value="&lt;font style=&quot;font-size: 18px;&quot;&gt;実装&lt;/font&gt;" style="rounded=0;whiteSpace=wrap;html=1;" vertex="1" parent="1">
                    <mxGeometry x="260" y="390" width="120" height="60" as="geometry"/>
                </mxCell>
                <mxCell id="6" value="&lt;font style=&quot;font-size: 18px;&quot;&gt;総合試験&lt;/font&gt;" style="rounded=0;whiteSpace=wrap;html=1;" vertex="1" parent="1">
                    <mxGeometry x="460" y="130" width="120" height="60" as="geometry"/>
                </mxCell>
                <mxCell id="7" value="&lt;font style=&quot;font-size: 18px;&quot;&gt;結合試験&lt;/font&gt;" style="rounded=0;whiteSpace=wrap;html=1;" vertex="1" parent="1">
                    <mxGeometry x="420" y="220" width="120" height="60" as="geometry"/>
                </mxCell>
                <mxCell id="8" value="&lt;font style=&quot;font-size: 18px;&quot;&gt;単体試験&lt;/font&gt;" style="rounded=0;whiteSpace=wrap;html=1;" vertex="1" parent="1">
                    <mxGeometry x="380" y="310" width="120" height="60" as="geometry"/>
                </mxCell>
                <mxCell id="22" value="&lt;font style=&quot;font-size: 30px;&quot;&gt;システム開発のV字モデル&lt;/font&gt;" style="text;html=1;strokeColor=none;fillColor=none;align=center;verticalAlign=middle;whiteSpace=wrap;rounded=0;fontSize=18;" vertex="1" parent="1">
                    <mxGeometry x="137.5" width="365" height="60" as="geometry"/>
                </mxCell>
            </root>
        </mxGraphModel>
    </diagram>
</mxfile>